<svg width="100" height="100" viewBox="0 0 100 100" fill="none" xmlns="http://www.w3.org/2000/svg">
<path d="M61.4021 8.85072C72.1178 7.83457 82.7667 6.79013 93.564 6.79013C99.5859 6.79013 96.3128 22.9137 92.5 32C90.7898 36.0755 87.8635 38.6109 86.5469 41.6252C85.0161 45.1299 84.2913 48.1527 84.2913 52.0117C84.2913 56.2166 84.439 60.4519 84.2774 64.6537C84.2194 66.1619 83.7819 67.5022 82.913 68.7332C81.3441 70.9557 79.7953 73.4671 77.664 75.2073C72.6724 79.283 65.6332 78.4653 59.6339 78.4653C54.3763 78.4653 49.1967 78.1993 44.4997 80.9714C40.9045 83.0931 38.1321 86.0344 34.7954 88.4758C31.8416 90.6371 28.3803 91.2898 25.0076 92.4996C21.8864 93.6191 17.2097 93.3327 13.9946 92.6109C11.3475 92.0167 9.29064 91.0552 6.96351 89.7985C5.15357 88.8211 5.70235 87.3881 6.7129 85.8723C8.11435 83.7701 10.4689 81.4746 10.5974 78.8412C10.7475 75.7638 9.65382 72.8531 7.79889 70.39C6.20286 68.2707 5.18188 66.7228 5.87752 64.0272C6.27374 62.4919 7.33986 61.3776 8.09127 60.0313C8.8265 58.714 9.60826 57.5744 10.5278 56.3835C12.6764 53.6009 13.6187 51.1627 13.6187 47.6539C13.6187 45.1925 13.1813 42.7473 12.1707 40.4836C11.3827 38.7185 11.8644 36.0207 11.8644 34.1069C11.8644 31.4901 13.9763 28.5812 15.8881 26.9505C18.2509 24.9352 20.3315 23.0618 23.3925 22.1332C26.9277 21.0607 30.5724 20.467 34.155 19.5714C37.763 18.6693 42.0401 18.2592 45.1958 16.1742C47.2407 14.8231 49.0284 13.158 51.2384 12.053C54.3781 10.4831 57.8856 9.18418 61.4021 8.85072Z" fill="#2D28C3"/>
</svg>
