<svg width="100" height="100" viewBox="0 0 100 100" fill="none" xmlns="http://www.w3.org/2000/svg">
<path d="M17 45V81.5C17 87.5751 21.9249 92.5 28 92.5C34.0751 92.5 39 87.5751 39 81.5C39 87.5751 43.9249 92.5 50 92.5C56.0751 92.5 61 87.5751 61 81.5C61 87.5751 65.9249 92.5 72 92.5C78.0751 92.5 83 87.5751 83 81.5V45C83 26.7746 68.2254 12 50 12C31.7746 12 17 26.7746 17 45Z" fill="#D9D9D9"/>
<path d="M35 38C29.4772 38 25 42.4772 25 48H45C45 42.4772 40.5228 38 35 38Z" fill="#F2E6D5"/>
<path d="M65 38C59.4772 38 55 42.4772 55 48H75C75 42.4772 70.5228 38 65 38Z" fill="#F2E6D5"/>
</svg>
